<?xml version="1.0" encoding="utf-8"?>
<!-- Generator: Adobe Illustrator 26.1.0, SVG Export Plug-In . SVG Version: 6.00 Build 0)  -->
<svg version="1.1" id="Layer_1" xmlns="http://www.w3.org/2000/svg" xmlns:xlink="http://www.w3.org/1999/xlink" x="0px" y="0px"
	 viewBox="0 0 400 400" style="enable-background:new 0 0 400 400;" xml:space="preserve">
<style type="text/css">
	.st0{fill:#171717;}
	.st1{fill:#22C55E;}
	.st2{fill:#FF4862;}
</style>
<g>
	<rect x="0" class="st0" width="400" height="400"/>
</g>
<g>
	<g id="iPhone_12_12_Pro_1">
		<path id="Rectangle_4" class="st1" d="M29,25h157c2.2,0,4,1.8,4,4v157c0,2.2-1.8,4-4,4H29c-2.2,0-4-1.8-4-4V29
			C25,26.8,26.8,25,29,25z"/>
		<path id="Rectangle_17" class="st2" d="M29,210h157c2.2,0,4,1.8,4,4v157c0,2.2-1.8,4-4,4H29c-2.2,0-4-1.8-4-4V214
			C25,211.8,26.8,210,29,210z"/>
		<path id="Rectangle_16" class="st2" d="M214,25h162c2.2,0,4,1.8,4,4v157c0,2.2-1.8,4-4,4H214c-2.2,0-4-1.8-4-4V29
			C210,26.8,211.8,25,214,25z"/>
		<path id="Rectangle_18" class="st1" d="M214,210h162c2.2,0,4,1.8,4,4v157c0,2.2-1.8,4-4,4H214c-2.2,0-4-1.8-4-4V214
			C210,211.8,211.8,210,214,210z"/>
	</g>
</g>
</svg>
