<?xml version="1.0" standalone="no"?>
<!DOCTYPE svg PUBLIC "-//W3C//DTD SVG 20010904//EN"
 "http://www.w3.org/TR/2001/REC-SVG-20010904/DTD/svg10.dtd">
<svg version="1.0" xmlns="http://www.w3.org/2000/svg"
 width="700.000000pt" height="700.000000pt" viewBox="0 0 700.000000 700.000000"
 preserveAspectRatio="xMidYMid meet">
<metadata>
Created by potrace 1.14, written by Peter Selinger 2001-2017
</metadata>
<g transform="translate(0.000000,700.000000) scale(0.100000,-0.100000)"
fill="#000000" stroke="none">
<path d="M0 3500 l0 -3500 3500 0 3500 0 0 3500 0 3500 -3500 0 -3500 0 0
-3500z m3306 3039 c18 -21 19 -58 19 -1420 l0 -1398 -23 -23 -23 -23 -1398 0
c-1362 0 -1399 1 -1420 19 l-21 19 0 1404 c0 1390 0 1403 20 1423 20 20 33 20
1423 20 l1404 0 19 -21z m3323 -5 l21 -27 0 -1384 c0 -1397 0 -1413 -34 -1435
-6 -4 -661 -8 -1455 -8 -1330 0 -1446 1 -1463 17 -17 15 -18 73 -18 1420 0
1390 0 1403 20 1423 20 20 33 20 1464 20 l1445 0 20 -26z m-3327 -3231 c17
-15 18 -73 18 -1420 0 -1390 0 -1403 -20 -1423 -20 -20 -33 -20 -1420 -20
-1387 0 -1400 0 -1420 20 -20 20 -20 33 -20 1420 0 1387 0 1400 20 1420 20 20
33 20 1422 20 1290 0 1403 -1 1420 -17z m3332 -5 c14 -20 16 -171 16 -1420 0
-1385 0 -1398 -20 -1418 -20 -20 -33 -20 -1468 -20 l-1449 0 -19 21 c-18 21
-19 58 -19 1419 0 1361 1 1398 19 1419 l19 21 1453 0 1453 0 15 -22z"/>
</g>
</svg>
